HIERARCHY
ROOT Hips
{
	OFFSET 0.00000 0.00000 0.00000
	CHANNELS 6 Xposition Yposition Zposition Zrotation Yrotation Xrotation 
	JOINT LHipJoint
	{
		OFFSET 0 0 0
		CHANNELS 3 Zrotation Yrotation Xrotation
		JOINT LeftUpLeg
		{
			OFFSET 1.75344 -1.53157 0.77399
			CHANNELS 3 Zrotation Yrotation Xrotation
			JOINT LeftLeg
			{
				OFFSET 2.25415 -6.19323 0.00000
				CHANNELS 3 Zrotation Yrotation Xrotation
				JOINT LeftFoot
				{
					OFFSET 2.30342 -6.32861 0.00000
					CHANNELS 3 Zrotation Yrotation Xrotation
					JOINT LeftToeBase
					{
						OFFSET 0.10958 -0.30108 1.49206
						CHANNELS 3 Zrotation Yrotation Xrotation
						End Site
						{
							OFFSET 0.00000 -0.00000 0.77783
						}
					}
				}
			}
		}
	}
	JOINT RHipJoint
	{
		OFFSET 0 0 0
		CHANNELS 3 Zrotation Yrotation Xrotation
		JOINT RightUpLeg
		{
			OFFSET -1.81912 -1.53156 0.77399
			CHANNELS 3 Zrotation Yrotation Xrotation
			JOINT RightLeg
			{
				OFFSET -2.22882 -6.12365 0.00000
				CHANNELS 3 Zrotation Yrotation Xrotation
				JOINT RightFoot
				{
					OFFSET -2.21943 -6.09785 0.00000
					CHANNELS 3 Zrotation Yrotation Xrotation
					JOINT RightToeBase
					{
						OFFSET -0.18931 -0.52012 1.59379
						CHANNELS 3 Zrotation Yrotation Xrotation
						End Site
						{
							OFFSET -0.00000 -0.00000 0.84686
						}
					}
				}
			}
		}
	}
	JOINT LowerBack
	{
		OFFSET 0 0 0
		CHANNELS 3 Zrotation Yrotation Xrotation
		JOINT Spine
		{
			OFFSET -0.00200 1.66634 -0.14248
			CHANNELS 3 Zrotation Yrotation Xrotation
			JOINT Spine1
			{
				OFFSET -0.00875 1.64542 0.09514
				CHANNELS 3 Zrotation Yrotation Xrotation
				JOINT Neck
				{
					OFFSET 0 0 0
					CHANNELS 3 Zrotation Yrotation Xrotation
					JOINT Neck1
					{
						OFFSET 0.02257 1.59605 0.00839
						CHANNELS 3 Zrotation Yrotation Xrotation
						JOINT Head
						{
							OFFSET -0.10214 1.57530 -0.23335
							CHANNELS 3 Zrotation Yrotation Xrotation
							End Site
							{
								OFFSET -0.03588 1.60717 -0.08062
							}
						}
					}
				}
				JOINT LeftShoulder
				{
					OFFSET 0 0 0
					CHANNELS 3 Zrotation Yrotation Xrotation
					JOINT LeftArm
					{
						OFFSET 2.54983 1.10186 0.40078
						CHANNELS 3 Zrotation Yrotation Xrotation
						JOINT LeftForeArm
						{
							OFFSET 4.28840 -0.00000 0.00000
							CHANNELS 3 Zrotation Yrotation Xrotation
							JOINT LeftHand
							{
								OFFSET 3.06552 -0.00000 -0.00000
								CHANNELS 3 Zrotation Yrotation Xrotation
								JOINT LeftFingerBase
								{
									OFFSET 0 0 0
									CHANNELS 3 Zrotation Yrotation Xrotation
									JOINT LeftHandIndex1
									{
										OFFSET 0.75304 -0.00000 0.00000
										CHANNELS 3 Zrotation Yrotation Xrotation
										End Site
										{
											OFFSET 0.60712 -0.00000 0.00000
										}
									}
								}
								JOINT LThumb
								{
									OFFSET 0 0 0
									CHANNELS 3 Zrotation Yrotation Xrotation
									End Site
									{
										OFFSET 0.61639 -0.00000 0.61639
									}
								}
							}
						}
					}
				}
				JOINT RightShoulder
				{
					OFFSET 0 0 0
					CHANNELS 3 Zrotation Yrotation Xrotation
					JOINT RightArm
					{
						OFFSET -2.60909 1.35448 0.21802
						CHANNELS 3 Zrotation Yrotation Xrotation
						JOINT RightForeArm
						{
							OFFSET -4.52172 -0.00000 -0.00000
							CHANNELS 3 Zrotation Yrotation Xrotation
							JOINT RightHand
							{
								OFFSET -2.89140 -0.00000 0.00000
								CHANNELS 3 Zrotation Yrotation Xrotation
								JOINT RightFingerBase
								{
									OFFSET 0 0 0
									CHANNELS 3 Zrotation Yrotation Xrotation
									JOINT RightHandIndex1
									{
										OFFSET -0.68054 -0.00000 0.00000
										CHANNELS 3 Zrotation Yrotation Xrotation
										End Site
										{
											OFFSET -0.54867 -0.00000 0.00000
										}
									}
								}
								JOINT RThumb
								{
									OFFSET 0 0 0
									CHANNELS 3 Zrotation Yrotation Xrotation
									End Site
									{
										OFFSET -0.55705 -0.00000 0.55705
									}
								}
							}
						}
					}
				}
			}
		}
	}
}
MOTION
Frames: 5
Frame Time: .0083333
11.0255 15.4057 -36.6574 -359.2210 -19.0936 362.4580 0.0000 0.0000 0.0000 -24.5479 -15.7384 -7.4831 2.4204 9.6918 27.9842 1.4350 -0.0994 -22.6337 3.1751 -10.9733 -32.1899 0.0000 0.0000 0.0000 19.8897 7.6897 -4.1820 -2.6219 -10.0562 29.1590 -1.4629 -15.2618 -32.7507 -0.0251 -1.0228 2.8114 -0.5777 1.8618 4.8644 2.3460 2.6086 -4.9941 2.4865 1.3881 -8.1172 4.1418 3.8115 -1.2647 -3.6100 5.0664 1.2609 -1.7650 2.5243 0.8158 0.0000 0.0000 0.0000 -86.1141 7.0745 42.5704 20.4383 -31.1668 -5.7565 -0.0000 -0.0000 14.2812 3.7146 -32.7369 -2.0108 -7.1250 0.0000 -0.0000 -15.7718 -1.7406 16.8890 0.0000 0.0000 0.0000 83.9242 -4.3332 36.4359 -16.1349 25.7032 -3.7043 0.0000 0.0000 24.5381 -0.1199 -52.6960 0.0954 7.1250 -0.0000 -0.0000 71.7418 -71.2888 -52.1419
11.0131 15.3903 -36.6683 -359.2200 -18.7405 362.0520 0.0000 0.0000 0.0000 -24.5612 -15.5084 -7.2972 2.4617 9.7679 28.2283 1.4965 -1.0826 -22.8144 3.2189 -11.0413 -32.4193 0.0000 0.0000 0.0000 20.2407 8.6596 -3.2319 -2.6229 -10.0581 29.1650 -1.5536 -14.6655 -32.7678 -0.0055 -0.4781 1.3136 -0.7067 1.9350 4.7198 2.3329 2.6880 -4.6347 2.5428 1.4295 -7.6549 3.7863 3.7527 -1.4214 -3.1622 4.9807 1.2492 -1.5578 2.4818 0.8105 0.0000 0.0000 0.0000 -86.0735 6.7991 42.4207 20.4236 -31.1493 -5.7489 -0.0000 -0.0000 14.4984 4.2224 -32.6508 -2.2810 -7.1250 0.0000 -0.0000 -15.4910 -1.7093 16.5562 0.0000 0.0000 0.0000 83.8885 -4.2503 36.3415 -16.0809 25.6302 -3.6809 0.0000 0.0000 24.8258 0.5053 -53.5881 -0.4067 7.1250 -0.0000 -0.0000 74.5918 -71.3296 -54.8473
10.9997 15.3883 -36.6870 -359.2110 -18.1569 362.3420 0.0000 0.0000 0.0000 -24.3675 -15.7658 -7.8014 2.4941 9.8272 28.4189 1.5178 -1.6871 -22.8147 3.3170 -11.1913 -32.9280 0.0000 0.0000 0.0000 20.5324 9.7512 -3.0489 -2.6174 -10.0482 29.1331 -1.5679 -14.4924 -32.7039 -0.0000 0.0302 -0.0830 -0.9630 2.0030 4.6114 2.2883 2.7594 -4.8625 2.6324 1.4809 -7.8519 3.6455 3.5597 -1.3536 -2.8746 4.7261 1.4532 -1.4456 2.3573 0.8407 -0.0000 0.0000 0.0000 -85.9193 7.1012 42.5466 20.5468 -31.2955 -5.8127 -0.0000 -0.0000 14.9669 6.1788 -32.2297 -3.3044 -7.1250 0.0000 -0.0000 -14.3962 -1.5146 15.2566 -0.0000 0.0000 0.0000 83.9063 -4.7760 35.9486 -16.0768 25.6246 -3.6791 0.0000 0.0000 24.9195 0.9252 -53.5330 -0.7440 7.1250 -0.0000 -0.0000 74.6461 -71.1681 -54.7022
10.9848 15.3843 -36.6958 -359.2330 -17.6865 362.3880 0.0000 0.0000 0.0000 -24.2496 -16.0240 -7.9254 2.5243 9.8819 28.5951 1.5124 -1.6010 -22.7957 3.3410 -11.2276 -33.0515 0.0000 0.0000 0.0000 20.9097 10.8455 -2.5277 -2.5986 -10.0151 29.0255 -1.4963 -14.6029 -32.3694 -0.0001 0.0587 -0.1613 -1.0822 2.0598 4.5377 2.2420 2.8244 -4.9508 2.6442 1.5196 -7.9117 3.3452 3.4281 -1.3177 -2.4582 4.5525 1.6657 -1.2636 2.2733 0.8746 0.0000 0.0000 0.0000 -85.7668 7.5063 42.6845 20.7270 -31.5082 -5.9066 -0.0000 -0.0000 14.8472 1.6286 -32.6868 -0.8797 -7.1250 0.0000 -0.0000 -16.9073 -1.4981 18.1442 0.0000 0.0000 0.0000 83.8889 -5.2733 35.7918 -16.0975 25.6527 -3.6881 0.0000 0.0000 24.9191 1.2153 -53.5049 -0.9771 7.1250 -0.0000 -0.0000 74.7140 -71.0594 -54.6338
10.9740 15.3824 -36.7085 -359.2920 -16.8386 362.4190 0.0000 0.0000 0.0000 -24.0834 -16.3512 -8.0570 2.5482 9.9251 28.7345 1.4988 -1.8760 -22.6198 3.4463 -11.3847 -33.5886 0.0000 0.0000 0.0000 21.3539 11.6825 -2.0270 -2.5696 -9.9634 28.8584 -1.4012 -15.1645 -32.2912 -0.0006 0.1555 -0.4271 -1.0475 1.9400 4.1383 2.2432 2.6633 -4.8096 2.6580 1.4352 -7.5149 2.9483 3.3134 -1.1608 -2.1370 4.4037 1.5293 -1.1004 2.1999 0.7813 -0.0000 -0.0000 0.0000 -85.6973 7.5020 42.8071 20.7290 -31.5106 -5.9076 -0.0000 -0.0000 13.8615 6.9872 -31.5149 -3.6655 -7.1250 0.0000 -0.0000 -13.9137 -0.9157 14.5680 -0.0000 -0.0000 0.0000 83.7359 -5.3698 35.8552 -16.1300 25.6966 -3.7022 0.0000 0.0000 24.9672 2.0037 -53.8282 -1.6177 7.1250 -0.0000 -0.0000 76.0096 -70.8717 -55.6319
